<svg viewBox="0 0 24 24" xmlns="http://www.w3.org/2000/svg">
  <path fill-rule="evenodd" clip-rule="evenodd" d="M16.3763 7.09456c.5417.23443.775.82984.521 1.32988-.1859.36603-.3622.71522-.5303 1.04797-.685 1.35639-1.2321 2.43979-1.7262 3.27769-.6158 1.0443-1.2298 1.8554-2.0815 2.3959-.8708.5526-1.8561.7391-3.00788.8103-.82695.0512-1.84128.0459-3.06413.0395-.44059-.0023-.90826-.0048-1.40398-.0048-.59829 0-1.08331-.4477-1.08331-1 0-.5522.48502-.9999 1.08331-.9999.5475 0 1.04517.0025 1.50049.0049 1.18302.0061 2.08018.0108 2.82283-.0351 1.00157-.062 1.52657-.21 1.92517-.4629.4177-.2651.8321-.7308 1.406-1.704.4587-.778.9679-1.786 1.6489-3.13405.1714-.33934.3537-.70024.5489-1.08445.2539-.50004.899-.71537 1.4407-.48094Z"/>
  <path fill="none" stroke="#ffffff" d="M2 14.5a3.5 3.5 0 1 0 7 0a3.5 3.5 0 1 0 -7 0" />
  <path fill="none" stroke="#ffffff" d="M15 14.5a3.5 3.5 0 1 0 7 0a3.5 3.5 0 1 0 -7 0" />
  <path fill-rule="evenodd" clip-rule="evenodd" d="m16 7.5 2.9472 6.7764c.1235.247.0234.5473-.2236.6708-.247.1235-.5473.0234-.6708-.2236L15 8l1-.5Zm-10.03966 7h3.80115l-1.38224-3.4556L5.96034 14.5Zm-1.36995.2133 3.5-5.00003.87386.10103 1.99995 5L10.5 15.5H5.00001l-.40962-.7867ZM15.8901 4.5H14.5v-1h2l.4903.59806-.5 2.5-.9806-.19612L15.8901 4.5Z"/>
  <path d="M10 8H7V7l3 1Z"/>
  <path fill-rule="evenodd" clip-rule="evenodd" d="M8 8h1v1H8V8Z"/>
  <path fill-rule="evenodd" clip-rule="evenodd" d="m6.75 7 .32906-.23717 3.00004 1L10 8.25H7L6.75 8V7Zm.5.34686V7.75h1.20943L7.25 7.34686Z"/>
</svg>