<svg version="1.1" xmlns="http://www.w3.org/2000/svg" viewBox="0 0 20 20">
    <path d="M19.62 14.96l-.939.194a3.715 3.715 0 01-.377 1.01l.592.735a.345.345 0 01-.017.454l-.319.338-.318.338a.372.372 0 01-.465.058l-.808-.505c-.313.2-.657.357-1.03.461l-.115.915a.36.36 0 01-.346.31l-.474.022-.475.02a.365.365 0 01-.373-.278l-.206-.918a4.063 4.063 0 01-1.038-.37l-.745.578a.373.373 0 01-.468-.017l-.349-.309-.349-.309a.345.345 0 01-.06-.45l.525-.788a3.72 3.72 0 01-.461-.973l-.944-.112a.357.357 0 01-.32-.335l-.022-.46-.021-.46a.358.358 0 01.287-.363l.947-.2c.077-.356.212-.694.381-1.005l-.587-.727a.345.345 0 01.017-.454l.319-.338.319-.338a.372.372 0 01.464-.058l.813.509c.3-.188.631-.34.978-.442l.116-.924a.36.36 0 01.345-.31l.475-.021.475-.02a.365.365 0 01.373.278l.201.91c.368.074.717.196 1.042.365l.758-.574a.373.373 0 01.468.017l.349.309.349.309c.13.114.155.305.06.45l-.521.784c.202.298.36.624.47.972l.953.112c.176.021.311.16.32.335l.021.46.022.46a.369.369 0 01-.292.354zm-6.863-.507c.052 1.115 1.026 1.977 2.176 1.926 1.15-.05 2.04-.995 1.987-2.11-.052-1.114-1.026-1.976-2.176-1.926-1.15.051-2.04.996-1.987 2.11zm2.306-5.894c-.019 0-.038 0-.056.002l-.475.02-.475.021a1.232 1.232 0 00-1.183 1.061v.003l-.052.409-.132.06-.365-.23-.003-.001a1.277 1.277 0 00-1.595.202l-.318.338-.319.338a1.18 1.18 0 00-.063 1.558l.003.003.255.316a4.65 4.65 0 00-.06.159l-.429.09a1.215 1.215 0 00-.982 1.239l.021.46.022.46c.002.054.008.108.018.16a.548.548 0 01-.456.237H6.994a.546.546 0 01-.54-.442l-.243-1.388a6.068 6.068 0 01-1.528-.622l-1.156.815a.558.558 0 01-.7-.056l-.5-.485-.501-.486a.516.516 0 01-.058-.678l.841-1.145a5.557 5.557 0 01-.623-1.488L.58 9.26a.534.534 0 01-.455-.523V7.355c0-.255.192-.48.455-.523l1.432-.237a5.687 5.687 0 01.642-1.48l-.828-1.127a.516.516 0 01.058-.679l.5-.485.502-.486a.558.558 0 01.7-.055l1.18.815c.463-.261.97-.467 1.497-.598L6.5 1.125a.54.54 0 01.54-.442H8.464c.263 0 .494.187.539.442L9.24 2.5a5.98 5.98 0 011.535.617l1.175-.81a.558.558 0 01.7.056l.5.486.501.485c.187.18.212.467.058.679l-.835 1.139c.283.46.495.958.636 1.487l1.419.23a.534.534 0 01.456.523v1.209a1.279 1.279 0 00-.323-.042zM7.805 5.046c-1.725 0-3.124 1.355-3.124 3.028 0 1.672 1.4 3.028 3.124 3.028 1.726 0 3.124-1.356 3.124-3.028 0-1.673-1.398-3.028-3.124-3.028z"/>
</svg>
