<svg version="1.1" xmlns="http://www.w3.org/2000/svg" viewBox="0 0 8.467 8.467">
    <path d="M6.56.793c-.29 0-.575.095-.785.301-.21.206-.329.515-.329.881 0 .432.24.87.461 1.246.22.375.442.668.442.668a.265.265 0 00.424 0s.218-.293.439-.668c.22-.376.46-.814.46-1.246 0-.366-.117-.675-.327-.881-.21-.206-.496-.3-.785-.3zm-.001.529c.289 0 .529.24.529.529 0 .29-.24.53-.53.53a.532.532 0 01-.527-.53c0-.29.239-.53.528-.53zM2.266 3.439c-.386 0-.761.12-1.037.383-.275.264-.435.662-.435 1.15 0 .556.332 1.165.643 1.68.31.515.62.918.62.918a.265.265 0 00.419 0s.31-.403.62-.918c.311-.515.643-1.124.643-1.68 0-.488-.16-.886-.436-1.15-.275-.264-.65-.383-1.037-.383zm3.813.529a.265.265 0 00-.01 0s-.464.033-.94.155a2.41 2.41 0 00-.69.273c-.207.131-.4.346-.4.631 0 .27.18.485.365.595.186.111.388.168.572.23.185.064.348.134.444.21.095.076.137.132.137.287 0 .1-.072.201-.28.32-.208.12-.52.221-.837.293-.634.144-1.28.182-1.28.182a.265.265 0 10.03.527s.677-.036 1.367-.193c.345-.078.694-.183.982-.348.288-.165.547-.425.547-.781a.898.898 0 00-.338-.701c-.19-.15-.404-.228-.6-.295-.195-.067-.373-.126-.472-.185-.1-.06-.108-.066-.108-.14 0-.052.028-.104.155-.185.127-.08.329-.155.536-.209.416-.106.844-.137.844-.137a.265.265 0 00-.024-.53zm-3.813.26a.645.628 0 01.645.628.645.628 0 01-.645.627.645.628 0 01-.645-.627.645.628 0 01.645-.629z"/>
</svg>
